<?xml version="1.0" encoding="UTF-8" standalone="no"?>
<svg
   xmlns:dc="http://purl.org/dc/elements/1.1/"
   xmlns:cc="http://creativecommons.org/ns#"
   xmlns:rdf="http://www.w3.org/1999/02/22-rdf-syntax-ns#"
   xmlns:svg="http://www.w3.org/2000/svg"
   xmlns="http://www.w3.org/2000/svg"
   xmlns:sodipodi="http://sodipodi.sourceforge.net/DTD/sodipodi-0.dtd"
   xmlns:inkscape="http://www.inkscape.org/namespaces/inkscape"
   viewBox="0 0 49.999996 80"
   height="80"
   width="49.999996"
   xml:space="preserve"
   version="1.1"
   id="svg2"
   sodipodi:docname="rijkslogo.svg"
   inkscape:version="0.92.2 (5c3e80d, 2017-08-06)"><sodipodi:namedview
     pagecolor="#ffffff"
     bordercolor="#666666"
     borderopacity="1"
     objecttolerance="10"
     gridtolerance="10"
     guidetolerance="10"
     inkscape:pageopacity="0"
     inkscape:pageshadow="2"
     inkscape:window-width="1920"
     inkscape:window-height="1101"
     id="namedview11"
     showgrid="false"
     inkscape:zoom="1.6744186"
     inkscape:cx="-306.375"
     inkscape:cy="35.111104"
     inkscape:window-x="0"
     inkscape:window-y="28"
     inkscape:window-maximized="1"
     inkscape:current-layer="svg2" /><metadata
     id="metadata8"><rdf:RDF><cc:Work
         rdf:about=""><dc:format>image/svg+xml</dc:format><dc:type
           rdf:resource="http://purl.org/dc/dcmitype/StillImage" /><dc:title /></cc:Work></rdf:RDF></metadata><defs
     id="defs6" /><path
     d="M 0,80 H 49.999997 V 0 H 0 Z"
     style="fill:#154273;fill-opacity:1;fill-rule:nonzero;stroke:none;stroke-width:0.12135956"
     id="path14"
     inkscape:connector-curvature="0" /><path
     d="m 27.483418,46.158938 c 0,0.216689 0.133513,0.534733 0.424012,0.443553 0.01425,-0.0068 0.02754,-0.0026 0.02429,0.01167 -0.0445,0.242739 -0.476386,0.463769 -0.674077,0.178154 -0.175032,0.369333 -0.134191,0.714921 0.243688,0.918991 0.02076,0.01221 0.02497,0.03867 0.0011,0.05563 -0.225235,0.164314 -0.576656,0.127815 -0.740426,-0.187516 -0.309495,0.232563 -0.264448,0.730797 -0.07625,0.900402 0,0.0033 -0.858606,0.510445 -1.638381,0.147354 -0.516141,-0.248031 -0.937032,-0.564448 -1.603781,-0.512481 0.09281,-0.934459 0.559695,-1.180862 1.418302,-1.315053 0.686966,-0.111262 0.773804,-0.42605 0.676383,-0.665126 -0.23324,-0.06201 -0.660508,0.152645 -0.660508,0.152645 -0.07625,-0.128222 0.03446,-0.262278 0.03446,-0.262278 -0.04179,-0.05142 -0.06296,-0.224286 -0.06296,-0.224286 0.479642,0 0.564444,-0.105427 0.564444,-0.105427 0.08535,-0.499862 -0.423469,-0.552779 -0.811524,-0.284123 -0.180188,-0.159023 -0.150473,-0.370419 -0.150473,-0.370419 -0.05414,-0.02714 -0.08806,-0.110312 -0.08806,-0.146268 0,-0.117774 0.569329,-0.438397 0.716139,-0.475438 0.0365,-0.1654 0.243823,-0.394978 0.848023,-0.340297 0.07205,-0.16065 -0.04505,-0.745179 -0.119266,-0.902709 -0.02442,-0.04763 0.01058,-0.07408 0.06364,-0.04071 0.210852,0.133513 0.420755,0.626455 0.564444,0.63541 0,0 0.679504,-0.356172 0.712882,-0.335955 0.03229,0.01805 0.128221,0.777472 0.128221,0.777472 0.09009,0.111262 0.614783,0.0027 0.84436,0.100678 0.05767,0.02551 0.05563,0.0673 0.0037,0.07531 -0.171776,0.02971 -0.718717,0.264992 -0.808811,0.416009 0.313836,0.470689 0.166484,1.164037 0.166484,1.354809 z m -6.06452,0.386294 c -0.05088,0.07056 -0.218315,-0.002 -0.281951,-0.03175 -0.01479,-0.0064 -0.0175,0 -0.01221,0.01058 0.0403,0.0901 0.202575,0.360378 0.442057,0.360378 0.108683,0 0.267161,-0.06296 0.312208,-0.136091 0,0 0.93866,0.304747 1.40297,0.433512 -0.180188,0.239618 -0.292534,0.528355 -0.315329,0.842736 -0.374215,-0.230528 -1.872028,-1.033509 -1.872028,-1.033509 l -0.46431,0.634325 c -0.07747,0.10502 -0.448435,-0.165263 -0.371502,-0.271776 l 0.354542,-0.485072 c -0.117095,-0.124558 -0.400132,-0.04613 -0.477064,-0.02374 -0.01058,0.0026 -0.02008,-0.0022 -0.01058,-0.0213 0.04505,-0.09539 0.221572,-0.38955 0.662544,-0.256444 0.0016,-0.269333 -0.400131,-0.183445 -0.504608,-0.15373 -0.01275,0.002 -0.01696,-0.0033 -0.0053,-0.01493 0.108683,-0.116553 0.434595,-0.379917 0.799856,-0.164179 l 0.158479,-0.218994 -0.321299,-0.337583 0.20149,-0.276661 0.225235,0.303119 1.729425,-2.368101 c 0.04233,-0.05834 0.384799,-0.157394 0.514105,-0.184938 0.01384,0.132021 0.02863,0.48765 -0.01275,0.545316 l -1.700795,2.389403 0.358883,0.118182 -0.198234,0.278289 -0.423469,-0.197693 z m 12.900538,12.46072 c 0.02225,-0.0037 0.02551,-0.02117 0.01072,-0.03175 -0.224828,-0.145183 -0.399725,-0.348167 -0.399725,-0.570825 0,-0.397555 0.762679,-0.919533 1.127396,-0.919533 0.216687,0 0.373131,0.2597 0.790765,0.2597 0.216823,0 0.469059,-0.08752 0.677876,-0.349795 0.01533,-0.02022 0.0069,-0.03609 -0.01805,-0.03189 -0.173268,0.02754 -0.64504,0.144776 -0.864984,-0.707594 -0.227813,-0.886698 -0.304745,-1.530657 0.0886,-1.869868 0.332832,-0.285616 1.796724,-0.841108 2.602278,-1.148569 0.04355,-0.0175 0.03976,-0.04654 0,-0.05563 -0.222521,-0.06255 -0.439886,-0.197692 -0.469058,-0.471639 -0.01954,-0.170691 0.01588,-0.404476 0.20936,-0.518451 -0.397961,-0.430391 -1.187233,-0.731339 -1.603239,-0.731339 -1.593742,0 -2.94583,2.159826 -3.593584,2.159826 -0.08046,0 -0.186022,-0.03026 -0.280865,-0.168113 -0.02117,-0.02917 -0.04342,-0.03175 -0.04342,0.01696 0,0.651964 0.345586,0.710851 0.528895,0.710851 0.104477,9.5e-4 0.21628,-0.03243 0.296333,-0.07748 0.02117,-0.01316 0.03175,-0.0037 0.03175,0.02022 0,0.02646 -0.0053,0.09118 -0.0053,0.136227 0,0.76906 0.802976,1.60854 0.802976,1.60854 -0.36309,0.377881 -1.270407,1.012342 -1.524271,0.674759 -0.10814,-0.136227 -0.583576,-0.992803 -1.218576,-0.311125 -0.02225,0.02483 -0.0069,0.054 0.03609,0.054 0.357798,0 0.636493,0.243825 0.540564,0.613836 -0.515191,-0.411395 -1.225902,-0.344503 -1.225902,0.604203 0,0.0365 0.03718,0.04505 0.05563,0.01805 0.339209,-0.487107 0.87611,-0.157529 0.953585,-0.08752 -0.359969,0.05455 -0.983707,0.477609 -0.435137,1.226995 0.02279,0.03338 0.0445,0.02551 0.04763,0 0.05617,-0.492942 0.356169,-0.576117 0.601078,-0.576117 0.503523,0 0.870819,0.462142 1.255075,-0.02917 0.138262,0.642331 0.852229,0.581408 1.025498,0.552236 z M 16.704974,58.453716 c 0.384256,0.491314 0.752095,0.02917 1.255617,0.02917 0.245452,0 0.545449,0.08317 0.601622,0.576117 0.0026,0.02551 0.02374,0.03338 0.04763,0 0.548569,-0.749386 -0.07571,-1.17245 -0.435681,-1.226995 0.07748,-0.07001 0.614376,-0.399591 0.953993,0.08752 0.01859,0.027 0.05577,0.01845 0.05577,-0.01805 0,-0.948706 -0.71139,-1.015598 -1.226039,-0.604203 -0.09633,-0.370011 0.182359,-0.613836 0.5407,-0.613836 0.04288,0 0.05834,-0.02917 0.03596,-0.054 -0.635407,-0.681678 -1.111385,0.174898 -1.218982,0.311125 -0.253865,0.337583 -1.161182,-0.296878 -1.523729,-0.674759 0,0 0.802434,-0.83948 0.802434,-1.60854 0,-0.04505 -0.0053,-0.109768 -0.0053,-0.136227 0,-0.02388 0.01058,-0.03338 0.03229,-0.02022 0.07951,0.04505 0.191857,0.07843 0.295248,0.07748 0.183308,0 0.52998,-0.05889 0.52998,-0.710851 0,-0.04871 -0.02225,-0.04613 -0.04342,-0.01696 -0.09539,0.137855 -0.200948,0.168113 -0.281951,0.168113 -0.647212,0 -1.9993,-2.159826 -3.593584,-2.159826 -0.415463,0 -1.204193,0.300948 -1.602153,0.731339 0.192399,0.113975 0.228898,0.34776 0.20936,0.518451 -0.02917,0.273947 -0.246538,0.409088 -0.469195,0.471639 -0.03962,0.0091 -0.04342,0.03813 0,0.05563 0.804605,0.307461 2.269582,0.862953 2.602414,1.148569 0.393347,0.339211 0.316415,0.98317 0.0886,1.869868 -0.220486,0.85237 -0.691716,0.735138 -0.864984,0.707594 -0.02551,-0.0042 -0.03392,0.01167 -0.01805,0.03189 0.208275,0.262278 0.460511,0.349795 0.677333,0.349795 0.417635,0 0.573942,-0.2597 0.790765,-0.2597 0.364718,0 1.126853,0.521978 1.126853,0.919533 0,0.222658 -0.174353,0.425642 -0.398638,0.570825 -0.01479,0.01058 -0.01221,0.02809 0.0096,0.03175 0.174354,0.02917 0.887643,0.0901 1.025498,-0.552236 z m 7.522034,-12.84335 c 0.277609,-0.07056 0.58344,-0.03758 0.615869,-0.027 0.04396,0.01479 0.04233,0.081 -0.0069,0.08738 -0.579912,0.07422 -0.606371,0.340839 -0.976244,0.340839 -0.243824,0 -0.507322,-0.245453 -0.408137,-0.606917 0.01275,-0.04668 0.04925,-0.04762 0.05984,-0.0037 0.03718,0.155766 0.262413,0.325371 0.715596,0.209361 z m 1.451681,-0.972586 c -0.39389,-0.02442 -0.645584,0.06364 -0.633372,0.189144 0.191314,0.201491 0.445721,0.179239 0.633372,-0.189144 z m -3.313668,10.242007 c -0.218858,0.268248 -0.411258,0.01221 -0.6985,0.01221 -0.271368,0 -0.31655,0.226321 -0.322792,0.316416 -0.0016,0.01587 -0.01072,0.0228 -0.02225,0.0053 -0.306374,-0.418722 0.03596,-0.646536 0.236361,-0.676794 -0.02917,-0.02917 -0.330797,-0.232156 -0.523196,0.04668 -0.01425,0.01954 -0.03284,0.01058 -0.03284,-0.01384 -0.0095,-0.5194 0.402845,-0.556442 0.674213,-0.328628 0.04925,-0.195521 -0.07788,-0.328628 -0.297826,-0.339211 -0.02659,0 -0.0308,-0.01696 -0.02022,-0.02917 0.09227,-0.09905 0.181816,-0.144097 0.27191,-0.144097 0.289414,0 0.325912,0.36567 0.514649,0.36567 0.283579,0 0.684253,-0.381545 0.722922,-0.422929 -0.008,-0.02062 -0.279372,-0.75522 -0.225235,-1.195245 0.0026,-0.01791 -0.0075,-0.02117 -0.02022,-0.01262 -0.136091,0.07625 -0.484391,0.07368 -0.484391,-0.354137 0,-0.03446 0.01004,-0.03704 0.02971,-0.0095 0.152102,0.21099 0.399046,-0.02592 0.522518,-0.165399 0.133649,-0.148439 0.846531,-1.187239 1.798353,-1.187239 0.20936,0.0011 0.479777,0.115603 0.697007,0.266077 -0.328626,0.400134 -0.0022,0.783442 0.24111,0.734053 0.02863,-0.0053 0.03392,0.0213 0.0069,0.0308 -1.258195,0.472725 -1.820605,0.662548 -1.820605,1.715595 0,0.550201 0.188194,0.854948 0.510985,0.783442 0.02442,-0.0069 0.03067,0.0037 0.0137,0.02279 -0.116552,0.138805 -0.251693,0.184938 -0.363496,0.184938 -0.261327,0 -0.308545,-0.143147 -0.448978,-0.143147 -0.144096,0 -0.612612,0.276254 -0.612612,0.506782 0,0.08684 0.05509,0.205154 0.220486,0.313702 0.01113,0.0064 0.0047,0.01587 -0.0043,0.01696 -0.105426,0.02022 -0.476928,0.05197 -0.563358,-0.299456 z m -1.699711,-4.473246 -0.491853,-0.127272 -0.04084,0.06092 -0.570279,-0.250202 c 0,0 0.420213,-0.0026 0.5099,-0.0042 0.04763,0 0.05088,-0.03012 0.02592,-0.054 -0.232697,-0.22795 -0.436223,-0.426728 -0.436223,-0.426728 0,0 0.232155,0.08589 0.563359,0.209361 0.03772,0.0133 0.05142,-0.01425 0.03351,-0.03976 -0.158479,-0.234191 -0.375301,-0.550064 -0.375301,-0.550064 0,0 0.459018,0.307325 0.552233,0.369875 0.03026,0.02117 0.05414,0.0016 0.04138,-0.02917 -0.122387,-0.303662 -0.261869,-0.646536 -0.261869,-0.646536 l 0.504065,0.475438 c 0.02334,0.02171 0.04925,0.0095 0.04247,-0.02225 -0.04885,-0.226865 -0.138941,-0.646672 -0.138941,-0.646672 l 0.369467,0.540567 c 0.02225,0.03188 0.0498,0.02225 0.05034,-0.01425 0.002,-0.106513 0.01221,-0.591585 0.01221,-0.591585 0,0 0.155223,0.3578 0.234191,0.541246 0.01587,0.0365 0.04396,0.03975 0.06363,-0.0085 0.02497,-0.05821 0.190229,-0.45685 0.190229,-0.45685 l 0.02184,0.614786 -0.08222,0.01588 -0.103391,0.74043 c 0.734049,-0.171641 1.648421,-1.426723 2.349635,-1.426723 0.834726,0 1.137844,0.977878 2.680839,0.482359 0.389005,0.576116 0.525774,1.076927 0.676248,1.770139 0.594701,0.560242 1.431599,0.373676 1.431599,-0.219944 0,-0.798639 -0.871361,-0.951284 -0.871361,-1.785065 0,-0.372047 0.261327,-0.907322 0.972581,-0.907322 0.376251,0 0.928076,0.1616 1.245441,0.1616 0.376929,0 0.457525,-0.272997 0.499316,-0.385887 0.03501,-0.0848 0.137312,-0.05672 0.127814,0.0096 -0.01275,0.07843 0.04342,0.186566 0.04342,0.36567 0,0.527405 -0.766885,0.596197 -0.862813,0.531611 -0.03976,-0.02809 -0.06784,0.01425 -0.03976,0.0365 0.115467,0.09335 0.08955,0.407053 -0.04722,0.606916 -0.01696,0.02279 -0.03813,0.01913 -0.04301,-0.0027 -0.08155,-0.377339 -0.525232,-0.843687 -0.915323,-0.843687 -0.143553,0 -0.429303,0.08317 -0.429303,0.414381 0,0.474488 0.949786,0.906372 0.949786,1.889542 0,1.02184 -1.012336,1.26675 -2.029964,1.012342 0.03446,0.967294 1.47936,1.542325 1.513823,0.851284 0.0015,-0.0483 0.02754,-0.01859 0.04179,9.5e-4 0.214651,0.295249 0.117231,0.520486 -0.155765,0.634461 0.25115,0.113975 0.296197,0.621706 0.370416,0.924961 0.110854,0.454678 0.593074,0.202984 0.616954,0.189687 0.02605,-0.01588 0.03555,-0.0016 0.02497,0.02754 -0.183444,0.473267 -0.667835,0.294164 -0.667835,0.294164 -0.254407,0.179103 0.05292,0.339211 0.283579,0.408681 0.03446,0.009 0.03229,0.03446 0.0053,0.04505 -0.170691,0.06201 -0.534323,0.175983 -0.710848,-0.128764 -0.130256,0.315331 -0.399045,0.305833 -0.503386,0.305833 -0.186158,0 -0.310173,0.191315 -0.266076,0.445723 0.0042,0.02225 -0.01167,0.02863 -0.02863,0.01533 -0.443686,-0.294164 -0.188736,-0.639753 -0.01018,-0.726184 -0.03066,-0.01791 -0.335952,-0.145725 -0.465802,0.212618 -0.01004,0.02754 -0.02754,0.02917 -0.03758,0.002 -0.192942,-0.515058 0.229441,-0.665125 0.534187,-0.535275 -0.02117,-0.07259 -0.180731,-0.324286 -0.581405,-0.243825 -0.01805,0.0053 -0.03026,-0.002 -0.01913,-0.02754 0.06581,-0.157937 0.264447,-0.391179 0.62808,-0.155223 0.185479,0.115467 0.506778,-0.05305 0.535272,-0.0673 -0.64599,-1.286967 -1.90215,-0.209361 -2.183016,-1.217497 -0.0053,-0.02117 -0.0308,-0.0403 -0.0483,0.01533 -0.06676,0.214653 -0.61424,0.229578 -0.714918,-0.193486 -0.0085,-0.03284 0.0042,-0.0365 0.02537,-0.01587 0.0806,0.08114 0.252236,0.15373 0.479099,-0.173269 0.150067,-0.216281 0.170691,-0.505154 0.170691,-0.700675 0,-0.783442 -0.78181,-2.096732 -2.00025,-2.096732 -0.770684,0 -1.599033,0.300948 -2.213816,0.748842 l 0.572314,0.130936 c -0.054,0.579373 -0.610577,0.91587 -1.121969,0.773808 l 0.08847,-0.662547 c -0.08847,0.02809 -0.313158,0.107598 -0.432967,0.278289 -0.0091,0.01384 -0.02659,0.0095 -0.0308,-0.0053 -0.104341,-0.37476 0.205697,-0.563904 0.302168,-0.613158 0.01058,-0.0064 0.01004,-0.01492 -0.01004,-0.01492 -0.277202,-0.01058 -0.433645,0.194029 -0.477606,0.263906 -0.0075,0.01072 -0.01913,0.008 -0.02225,-9.5e-4 -0.02279,-0.06893 -0.0715,-0.262956 0.05834,-0.400676 z m 4.33496,12.145254 c 4.859648,0 9.795144,0.254408 10.440185,0.987511 0.05197,0.05821 0.07313,-0.0011 0.07313,-0.04505 l 0.0011,-2.57597 c 0,-0.751556 -5.091804,-1.188867 -10.514404,-1.188867 -5.423686,0 -10.514946,0.437311 -10.514946,1.188867 l 0.0011,2.57597 c 0,0.04396 0.02117,0.103256 0.07313,0.04505 0.64504,-0.733103 5.580536,-0.987511 10.440727,-0.987511 z m 7.929493,1.15074 v 1.116683 c 0,1.898497 3.127103,0.117638 6.145523,-0.07422 2.5054,-0.164313 3.204985,0.475439 3.204985,0.475439 l -0.459425,-2.533501 c -0.02442,-0.137177 -0.566072,-0.52727 -2.294547,-0.52727 -2.078132,0 -3.121133,0.39742 -3.501183,0.531612 v 1.330251 c 0,0.303255 -0.152644,0.451558 -0.383171,0.544366 0,-0.110719 -0.347215,-0.86336 -2.712182,-0.86336 z m -18.571711,0.86336 c -0.230526,-0.09281 -0.383171,-0.241111 -0.383171,-0.544366 v -1.330251 c -0.381135,-0.134192 -1.423051,-0.531612 -3.501861,-0.531612 -1.7277966,0 -2.2689033,0.390093 -2.2944118,0.52727 l -0.4590181,2.533501 c 0,0 0.699721,-0.639752 3.2051209,-0.475439 3.01842,0.191858 6.145523,1.972717 6.145523,0.07422 v -1.116683 c -2.36551,0 -2.712182,0.752641 -2.712182,0.86336 z m 5.754347,-21.949136 c -0.724958,0.159023 -1.245983,0.30909 -1.479224,0.380053 0.01221,-0.32008 0.133513,-0.6175 0.419263,-0.683714 0.0365,-0.009 0.04613,-0.05834 0.01221,-0.0806 -0.646669,-0.429306 -0.993341,0.393892 -1.003382,0.419808 -0.228898,-0.01696 -0.578284,0.05454 -0.578284,0.36472 0,0.926453 -2.118973,1.440562 -2.609741,1.515731 0.865527,0.333919 1.225903,1.42428 1.225903,1.42428 0.62808,-0.628084 1.362672,-1.181948 1.524407,-1.181948 0.166891,0 0.230526,0.209362 0.243823,0.33392 0.0042,0.04125 0.04233,0.05454 0.06825,0.01845 0.328626,-0.489685 0.17069,-0.600947 0.144232,-0.745722 -0.02117,-0.113975 0.01221,-0.543281 0.491854,-0.492942 v 6.181107 l -0.246402,0.04925 c -0.113432,0.02022 -1.017221,-0.7483 -2.052217,-1.464442 -1.034588,-0.714922 -1.59062,-0.287244 -2.770933,0.351423 -1.543945,0.835816 -3.105936,0.07788 -3.105936,0.07788 -1.3318714,0.95142 -1.7850551,3.702287 -1.7850551,3.702287 -0.2649903,0.113839 -0.7050126,0.233106 -1.1215617,0.233106 -1.0159998,0 -1.2031076,-0.614786 -1.2031076,-0.98317 0,-1.568241 1.9642933,-2.241372 1.9642933,-3.788039 0,-0.375168 -0.1723183,-1.901618 -2.0602217,-1.901618 -0.2416528,0 -1.6827497,-0.0027 -1.6896695,-0.0027 -0.7065052,0 -0.8835725,-0.508816 -0.9816718,-0.703252 -0.038127,-0.07531 -0.1101752,-0.03189 -0.083174,0.02754 0.054545,0.130392 -0.081139,0.327542 -0.081139,0.71967 0,0.628084 0.3689241,1.005422 1.0558908,1.005422 0.3126153,0 0.6067776,-0.08847 0.702299,-0.145725 0.0635,-0.0365 0.097421,0.02388 0.067842,0.05889 -0.2995896,0.349252 -0.3233343,1.003794 -0.2004048,1.162816 0.029172,0.03867 0.065671,0.02809 0.073133,-0.0026 0.1653985,-0.663633 0.7871013,-1.290088 1.6239986,-1.290088 1.0240051,0 1.0187134,0.87028 1.0187134,1.08127 0,1.258202 -2.210695,2.182077 -2.210695,3.912597 0,1.75535 1.8545252,2.131603 2.928869,1.853993 -0.063093,1.756978 -2.0746042,2.35589 -2.1355262,1.098095 -0.00475,-0.0593 -0.047625,-0.07422 -0.080461,0.0053 -0.254407,0.621299 -0.1537297,1.167701 0.6290298,1.34097 0.053052,0.0133 0.027001,0.04247 -0.021167,0.07585 -0.7748898,0.492941 -0.3550843,2.429566 -0.3164144,2.999305 0.058344,0.822112 -0.7590148,0.72347 -0.8257712,0.699725 -0.033378,-0.01275 -0.066214,0.0042 -0.014247,0.06879 0.5786911,0.710851 1.2942871,0.06106 1.2942871,0.06106 0.540564,0.169605 0.2055608,0.630661 -0.1548151,0.871773 -0.056173,0.03867 -0.051967,0.07585 0.00896,0.07951 0.081139,0.0053 0.9174934,0.07585 1.0670168,-0.590363 0.3698739,0.44206 0.9147797,0.280324 1.0292968,0.221979 0.1610566,-0.08155 0.9449015,-0.366755 1.0229196,0.514109 0.00475,0.06364 0.041791,0.0228 0.067842,-0.01058 0.5919889,-0.744637 -0.042469,-1.2042 -0.3948396,-1.258745 0.028087,-0.04084 0.5033865,-0.434055 0.9301125,0.111261 0.02863,0.03772 0.05563,0.04505 0.06092,-0.02917 0.04885,-0.944364 -0.7196671,-1.030253 -1.217355,-0.620078 -0.022795,-0.09647 -0.1887361,-0.628084 0.5628161,-0.609495 0.018046,0 0.053595,-0.02592 0.015875,-0.06364 -0.583033,-0.615872 -1.062675,-0.05563 -1.1739356,0.07843 -0.2596987,0.305832 -0.9063673,0.18453 -0.9662039,0.175982 0.2029829,-3.283428 3.0952174,-2.12007 3.4927714,-3.715448 0.01859,-0.0848 0.05672,-0.05237 0.06459,-0.02225 0.109225,0.38955 1.090897,0.444231 1.271085,-0.3232 0.01004,-0.04776 0.0042,-0.0848 -0.03026,-0.04939 -0.83744,0.83636 -2.7231731,-1.777602 -0.149931,-3.902014 2.196855,-1.810981 4.165898,-0.801895 4.914736,-0.205019 0.03976,0.261735 -0.116552,0.346538 -0.216687,0.378967 -0.03555,0.01058 -0.04722,0.04342 0.01004,0.06567 0.20936,0.07951 0.504065,0.05455 0.642327,-0.141519 0.471772,0.330256 0.06784,0.744636 -0.12293,0.859697 -0.04871,0.0308 -0.027,0.06255 0.0133,0.07056 0.432967,0.07842 0.78968,-0.36472 0.80664,-0.619128 l 0.07313,0.04138 v 1.865662 c 0,2.656973 3.064552,3.025357 6.428559,5.277312 3.362921,-2.251955 6.427474,-2.620339 6.427474,-5.277312 v -1.865662 l 0.07368,-0.04138 c 0.01696,0.254408 0.373673,0.697553 0.80664,0.619128 0.04084,-0.008 0.06092,-0.03976 0.0133,-0.07056 -0.190771,-0.115061 -0.594702,-0.529441 -0.122929,-0.859697 0.137719,0.196064 0.432966,0.22103 0.642326,0.141519 0.05672,-0.02225 0.04613,-0.05509 0.0095,-0.06567 -0.09959,-0.03243 -0.255899,-0.117232 -0.216144,-0.378967 0.748838,-0.596876 2.717881,-1.605962 4.914736,0.205019 2.573242,2.124412 0.686967,4.738374 -0.14993,3.902014 -0.03501,-0.03541 -0.0403,0.0016 -0.03026,0.04939 0.180188,0.767431 1.16186,0.71275 1.270407,0.3232 0.008,-0.03012 0.04668,-0.06255 0.06526,0.02225 0.397553,1.595378 3.289787,0.43202 3.49277,3.715448 -0.05984,0.0085 -0.706505,0.12985 -0.966204,-0.175982 -0.11126,-0.134057 -0.591038,-0.694298 -1.173935,-0.07843 -0.03826,0.03772 -0.0027,0.06364 0.01588,0.06364 0.751552,-0.01859 0.585611,0.513023 0.56173,0.609495 -0.496602,-0.410175 -1.2662,-0.324286 -1.216269,0.620078 0.0047,0.07422 0.03284,0.06689 0.06092,0.02917 0.42659,-0.545316 0.90094,-0.152102 0.930112,-0.111261 -0.35237,0.05455 -0.986827,0.514108 -0.394839,1.258745 0.02551,0.03338 0.06255,0.07422 0.06784,0.01058 0.07734,-0.880864 0.86132,-0.595655 1.022919,-0.514109 0.114517,0.05834 0.658338,0.220081 1.029297,-0.221979 0.148438,0.66621 0.985878,0.595654 1.066881,0.590363 0.06051,-0.0037 0.06472,-0.04084 0.0091,-0.07951 -0.360376,-0.241112 -0.695379,-0.702168 -0.154815,-0.871773 0,0 0.715596,0.649793 1.294287,-0.06106 0.05088,-0.06459 0.01859,-0.08155 -0.01425,-0.06879 -0.06676,0.02374 -0.884658,0.122387 -0.825771,-0.699725 0.03867,-0.569739 0.458475,-2.506364 -0.316414,-2.999305 -0.04939,-0.03338 -0.07476,-0.06255 -0.02117,-0.07585 0.782759,-0.173269 0.883437,-0.719671 0.62903,-1.34097 -0.03284,-0.07951 -0.0768,-0.06459 -0.0806,-0.0053 -0.06092,1.257795 -2.072298,0.658883 -2.135934,-1.098095 1.074344,0.27761 2.928869,-0.09864 2.928869,-1.853993 0,-1.73052 -2.210695,-2.654395 -2.210695,-3.912597 0,-0.21099 -0.0053,-1.08127 1.018714,-1.08127 0.836897,0 1.458057,0.626455 1.624541,1.290088 0.0069,0.03066 0.04396,0.04125 0.07313,0.0026 0.122929,-0.159022 0.09905,-0.813564 -0.200405,-1.162816 -0.03012,-0.03501 0.0038,-0.09539 0.06784,-0.05889 0.09444,0.05726 0.389548,0.145725 0.701213,0.145725 0.68751,0 1.056298,-0.377338 1.056298,-1.005422 0,-0.392128 -0.135141,-0.589278 -0.08046,-0.71967 0.027,-0.05943 -0.04613,-0.102849 -0.08331,-0.02754 -0.09851,0.194436 -0.275574,0.703252 -0.981536,0.703252 -0.0069,0 -1.447474,0.0027 -1.690213,0.0027 -1.88736,0 -2.060764,1.52645 -2.060764,1.901618 0,1.546667 1.964836,2.219798 1.964836,3.788039 0,0.368384 -0.186022,0.98317 -1.203108,0.98317 -0.417227,0 -0.857114,-0.119267 -1.121019,-0.233106 0,0 -0.453183,-2.750867 -1.785055,-3.702287 0,0 -1.561991,0.757934 -3.105936,-0.07788 -1.180313,-0.638667 -1.736888,-1.066345 -2.772019,-0.351423 -1.034588,0.716142 -1.938242,1.484659 -2.051131,1.464442 l -0.246944,-0.04925 v -6.181107 c 0.479642,-0.05034 0.513563,0.378967 0.492396,0.492942 -0.02646,0.144775 -0.18453,0.256037 0.144096,0.745722 0.02551,0.03609 0.06364,0.0228 0.06784,-0.01845 0.0133,-0.124558 0.07693,-0.33392 0.243824,-0.33392 0.161735,0 0.896869,0.553864 1.524814,1.181948 0,0 0.360511,-1.090361 1.226038,-1.42428 -0.491854,-0.07517 -2.610419,-0.589278 -2.610419,-1.515731 0,-0.310175 -0.34925,-0.381681 -0.577606,-0.36472 -0.01072,-0.02592 -0.357255,-0.849114 -1.003381,-0.419808 -0.03446,0.02225 -0.02497,0.07164 0.01221,0.0806 0.285072,0.06621 0.407594,0.363634 0.419263,0.683714 -0.617497,-0.189145 -3.247997,-0.92754 -6.366552,-0.92754 -1.51423,0 -2.909331,0.174898 -4.018545,0.375304 v 2.142865 h -0.869326 v -1.970682 m 4.887871,-1.989134 c 2.664828,0 4.169018,0.508817 4.169018,0.508817 0.01438,-1.346262 0.0053,-2.097275 0.777604,-1.984929 -0.421977,-1.131608 1.396592,-1.575161 1.396592,-3.049644 0,-0.971501 -0.686966,-1.081812 -0.889949,-1.081812 -0.603114,0 -0.508814,0.392806 -1.021834,0.392806 -0.06364,0 -0.12985,-0.01642 -0.12985,0.03012 0,0.169606 0.144096,0.460106 0.38005,0.460106 0.315329,0 0.322249,-0.31533 0.555897,-0.31533 0.10122,0 0.24708,0.08155 0.24708,0.404882 0,0.626998 -0.410851,1.322381 -0.895784,1.860913 -0.111261,-0.154274 -0.26282,-0.24966 -0.444093,-0.24966 -0.287243,0 -0.539072,0.299456 -0.539072,0.669467 0,0.136228 0.02171,0.23582 0.07151,0.350881 -0.1616,0.09009 -0.305289,0.141926 -0.413293,0.141926 -0.218451,0 -0.548569,-0.08901 -0.548569,-0.568654 0,-1.06743 1.432549,-2.008809 1.432549,-3.362397 0,-0.647215 -0.431882,-1.291174 -1.334586,-1.291174 -0.967832,0 -0.787508,0.88412 -1.624948,0.88412 -0.0388,0 -0.06893,0.01221 -0.06893,0.04613 0,0.05617 0.145181,0.544773 0.578284,0.544773 0.463767,0 0.594023,-0.801895 1.004331,-0.801895 0.153729,0 0.383171,0.09009 0.383171,0.633375 0,0.422929 -0.20936,1.10515 -0.510443,1.760235 -0.108547,-0.109226 -0.255356,-0.188737 -0.42184,-0.188737 -0.358884,0 -0.616954,0.347759 -0.616954,0.762139 0,0.262414 0.103391,0.515194 0.281408,0.682222 -0.210853,0.270826 -0.427133,0.490771 -0.719667,0.490771 -0.578284,0 -0.834319,-0.329171 -0.834319,-0.686971 0,-0.386293 0.705963,-0.52727 0.705963,-1.131608 0,-0.410717 -0.266483,-0.642331 -0.523604,-0.642331 -0.276116,0 -0.418177,0.182903 -0.445721,0.182903 -0.02863,0 -0.17069,-0.182903 -0.446807,-0.182903 -0.25712,0 -0.524146,0.231614 -0.524146,0.642331 0,0.604338 0.706505,0.745315 0.706505,1.131608 0,0.3578 -0.254949,0.686971 -0.833776,0.686971 -0.293077,0 -0.509357,-0.219945 -0.720752,-0.490771 0.17856,-0.167028 0.281951,-0.419808 0.281951,-0.682222 0,-0.41438 -0.258206,-0.762139 -0.616954,-0.762139 -0.166484,0 -0.313837,0.07951 -0.422384,0.188737 -0.299996,-0.655085 -0.509356,-1.337306 -0.509356,-1.760235 0,-0.543281 0.229441,-0.633375 0.38317,-0.633375 0.409087,0 0.539479,0.801895 1.004331,0.801895 0.433103,0 0.578284,-0.4886 0.578284,-0.544773 0,-0.03392 -0.03134,-0.04613 -0.06947,-0.04613 -0.83744,0 -0.657252,-0.88412 -1.624405,-0.88412 -0.902704,0 -1.334585,0.643959 -1.334585,1.291174 0,1.353588 1.432548,2.294967 1.432548,3.362397 0,0.479644 -0.330118,0.568654 -0.548569,0.568654 -0.108683,0 -0.251693,-0.05183 -0.414378,-0.141926 0.0498,-0.115061 0.07205,-0.214653 0.07205,-0.350881 0,-0.370011 -0.252372,-0.669467 -0.539071,-0.669467 -0.181274,0 -0.33229,0.09539 -0.443551,0.24966 -0.485612,-0.538532 -0.895783,-1.233915 -0.895783,-1.860913 0,-0.323336 0.145724,-0.404882 0.246401,-0.404882 0.234326,0 0.241246,0.31533 0.556575,0.31533 0.234733,0 0.379507,-0.2905 0.379507,-0.460106 0,-0.04654 -0.06567,-0.03012 -0.129306,-0.03012 -0.514106,0 -0.41872,-0.392806 -1.021835,-0.392806 -0.203525,0 -0.889949,0.110311 -0.889949,1.081812 0,1.474483 1.818433,1.918036 1.396592,3.049644 0.772177,-0.112346 0.762679,0.638667 0.776926,1.984929 0,0 1.503647,-0.508817 4.170239,-0.508817 z m 0,-6.403629 c -0.367839,0 -0.666207,0.296742 -0.666207,0.665125 0,0.366755 0.298368,0.665261 0.666207,0.665261 0.366753,0 0.664579,-0.298506 0.664579,-0.665261 0,-0.368383 -0.297826,-0.665125 -0.664579,-0.665125 z m -0.333918,-4.056288 c 0,0.160651 0.06893,0.301084 0.123473,0.378967 0.111803,0.159022 0.09484,0.247082 0.04193,0.299456 -0.05251,0.05305 -0.140569,0.07056 -0.299997,-0.04071 -0.07842,-0.05577 -0.218451,-0.124558 -0.378422,-0.124558 -0.274624,0 -0.410307,0.180189 -0.410307,0.33392 0,0.153594 0.135683,0.333783 0.410307,0.333783 0.159971,0 0.299997,-0.06879 0.378422,-0.124422 0.159428,-0.111397 0.247487,-0.09444 0.299997,-0.04084 0.05292,0.05142 -0.02442,0.602574 -0.08589,1.035679 -0.454269,0.09593 -0.672584,0.458342 -0.672584,0.67096 0,0.545316 0.583575,0.860782 0.926991,1.043549 0.34233,-0.182767 0.925906,-0.498233 0.925906,-1.043549 0,-0.212618 -0.218315,-0.575031 -0.671499,-0.67096 -0.06255,-0.433105 -0.139483,-0.984255 -0.08697,-1.035679 0.05251,-0.0536 0.140432,-0.07056 0.299996,0.04084 0.07788,0.05563 0.217908,0.124422 0.378422,0.124422 0.274081,0 0.410308,-0.180189 0.410308,-0.333783 0,-0.153731 -0.136227,-0.33392 -0.410308,-0.33392 -0.160514,0 -0.300539,0.06879 -0.378422,0.124558 -0.159564,0.111262 -0.247487,0.09376 -0.299996,0.04071 -0.05251,-0.05237 -0.07042,-0.140434 0.04193,-0.299456 0.05455,-0.07788 0.124558,-0.218316 0.124558,-0.378967 0,-0.273947 -0.180188,-0.410717 -0.333918,-0.410717 -0.154815,0 -0.333918,0.13677 -0.333918,0.410717 z m 13.395105,10.672534 c -0.135684,0.635411 -0.699178,0.72442 -1.044222,0.339212 0.02863,-0.30529 0.333918,-0.376932 1.044222,-0.339212 z m 4.113931,3.589262 c 0,-0.06526 -0.02809,-0.05468 -0.05509,-0.04138 -0.544906,0.27354 -0.840153,-0.312752 -0.70759,-0.916955 0.07422,-0.335955 0.369331,-1.249247 -0.371095,-1.99022 -0.728215,0.416687 -1.217898,-0.26757 -1.09334,-0.598912 0.03392,-0.08684 0.09118,-0.101763 0.09118,0.01058 0,0.232156 0.233647,0.400269 0.402302,0.400269 0.293619,0 0.828892,-0.328085 0.873939,-0.826319 -0.752638,-0.49457 -2.023045,-0.294164 -2.276366,0.635411 -0.03189,0.117231 -0.172319,0.106105 -0.162821,-0.01058 0.0049,-0.07951 0.03772,-0.630118 0.586832,-0.908407 0.495517,-0.24966 0.315329,-0.619128 0.184395,-0.750471 -0.054,-0.05414 -0.155358,-0.04355 -0.122387,0.01208 0.191314,0.329713 -0.217908,0.478695 -0.783981,0.408139 -1.197816,-0.159972 -1.592655,0.285209 -1.656291,0.593619 -0.262277,0.0673 -1.280447,0.638667 -1.280447,0.850742 0,0.06459 0.05929,0.215738 0.155222,0.261328 0,0 -0.02388,0.431341 0.294162,0.714922 1.273663,-0.769602 1.62712,-0.05034 1.49632,0.458478 0,0 -0.22537,0.184395 -1.083977,0.18548 0,0 0.04084,0.31004 0.113974,0.398099 0,0 -0.196063,0.24586 -0.05726,0.474353 0,0 0.439887,-0.331749 1.202158,-0.297421 0,0 0.486019,0.742059 -1.321424,1.090904 -1.810971,0.34708 -2.385049,2.059012 -2.385049,2.996184 0,0.04505 0.01967,0.07096 0.06147,0.06296 1.464435,-0.272319 2.135526,1.245583 4.036048,1.0734 -0.165263,-0.446267 0.01696,-0.914378 0.01696,-0.914378 0.149523,0.402847 0.508814,0.665261 0.764306,0.801895 0.674755,-0.151017 1.118848,-0.473267 1.220611,-0.666753 0,0 -0.717089,-0.59362 -0.249115,-1.663628 0,0 0.450605,0.713836 1.380717,0.325372 0.08317,-0.03555 0.06418,-0.0901 0.0091,-0.108684 -1.259959,-0.40651 -0.440022,-1.470819 -0.36309,-1.576789 0.584526,0.32605 1.079636,-0.103256 1.079636,-0.483308 z m -7.148362,-1.766612 c -0.370959,0 -0.721837,-0.164314 -0.789679,-0.44993 -0.01479,-0.07313 -0.07734,-0.09864 -0.105969,0.009 -0.175982,0.64138 0.276659,0.941921 0.719666,0.941921 0.488191,0 0.762679,-0.34993 1.457651,-0.469061 0.305695,-0.05142 0.515055,-0.0038 0.515055,-0.09647 0,-0.09281 -0.449384,-0.09444 -0.515055,-0.09444 -0.723466,0 -0.822108,0.159022 -1.281669,0.159022 z M 12.982762,41.179454 c -0.346129,0.385208 -0.909081,0.296199 -1.044222,-0.339212 0.710304,-0.03772 1.015593,0.03392 1.044222,0.339212 z m -4.0785172,3.733358 c 0.075847,0.10597 0.896191,1.170279 -0.3630897,1.576789 -0.05563,0.01859 -0.075304,0.07313 0.00909,0.108684 0.930112,0.388464 1.380582,-0.325372 1.380582,-0.325372 0.4681089,1.070008 -0.2496581,1.663628 -0.2496581,1.663628 0.1013558,0.193486 0.545991,0.515736 1.221153,0.666753 0.25495,-0.136634 0.614919,-0.399048 0.764307,-0.801895 0,0 0.182359,0.468111 0.01642,0.914378 1.900115,0.172183 2.572156,-1.345719 4.035641,-1.0734 0.04233,0.008 0.06255,-0.01791 0.06255,-0.06296 0,-0.937172 -0.574078,-2.649104 -2.385727,-2.996184 -1.806765,-0.348845 -1.320746,-1.090904 -1.320746,-1.090904 0.762136,-0.03433 1.202023,0.297421 1.202023,0.297421 0.13894,-0.228493 -0.05712,-0.474353 -0.05712,-0.474353 0.07313,-0.08806 0.113431,-0.398099 0.113431,-0.398099 -0.858199,-0.0011 -1.083434,-0.18548 -1.083434,-0.18548 -0.131885,-0.508817 0.222114,-1.22808 1.49632,-0.458478 0.317907,-0.283581 0.294027,-0.714922 0.294027,-0.714922 0.09606,-0.04559 0.1559,-0.196742 0.1559,-0.261328 0,-0.212075 -1.019256,-0.783442 -1.28099,-0.850742 -0.06364,-0.30841 -0.458475,-0.753591 -1.656427,-0.593619 -0.565937,0.07056 -0.975159,-0.07843 -0.784387,-0.408139 0.03243,-0.05563 -0.06893,-0.06621 -0.121844,-0.01208 -0.130935,0.131343 -0.311666,0.500811 0.183308,0.750471 0.549655,0.278289 0.583033,0.828896 0.587239,0.908407 0.0096,0.116689 -0.130799,0.127815 -0.162142,0.01058 -0.253321,-0.929575 -1.5237277,-1.129981 -2.2763654,-0.635411 0.044504,0.498234 0.5792339,0.826319 0.8728535,0.826319 0.1691976,0 0.402845,-0.168113 0.402845,-0.400269 0,-0.112347 0.057801,-0.09742 0.090637,-0.01058 0.124557,0.331342 -0.3645823,1.015599 -1.0929325,0.598912 -0.7398834,0.740973 -0.4446356,1.654265 -0.3704166,1.99022 0.132563,0.604203 -0.1626848,1.190495 -0.7075907,0.916955 -0.027544,-0.0133 -0.05563,-0.02388 -0.05563,0.04138 0,0.380052 0.495517,0.809358 1.0801782,0.483308 z M 13.69076,42.50387 c -0.06567,0 -0.515734,0.0016 -0.515734,0.09444 0,0.09267 0.20936,0.04505 0.515734,0.09647 0.695379,0.119131 0.970003,0.469061 1.458057,0.469061 0.443686,0 0.895784,-0.300541 0.719802,-0.941921 -0.02917,-0.107598 -0.09172,-0.08209 -0.105969,-0.009 -0.06784,0.285616 -0.419262,0.44993 -0.790222,0.44993 -0.459561,0 -0.558203,-0.159022 -1.281668,-0.159022 z m 16.098196,4.158594 h -0.86919 v -2.412199 h 0.86919 z M 25.868917,57.288729 H 25.00027 v -2.410027 h 0.868647 v 2.410027"
     style="fill:#ffffff;fill-opacity:1;fill-rule:nonzero;stroke:none;stroke-width:0.1356841"
     id="path16"
     inkscape:connector-curvature="0" /></svg>